OxygenSans-Regular.ufo
<glyph name="quotesingle" format="1">
  <advance width="364"/>
  <unicode hex="0027"/>
  <outline>
    <contour>
      <point x="129" y="887" type="line"/>
      <point x="110" y="1352" type="line"/>
      <point x="252" y="1352" type="line"/>
      <point x="234" y="887" type="line"/>
    </contour>
  </outline>
</glyph>
<glyph name="one" format="1">
  <advance width="975"/>
  <unicode hex="0031"/>
  <outline>
    <contour>
      <point x="870" y="0" type="line"/>
      <point x="144" y="0" type="line"/>
      <point x="144" y="140" type="line"/>
      <point x="449" y="140" type="line"/>
      <point x="449" y="1193" type="line"/>
      <point x="377" y="1146"/>
      <point x="268" y="1106"/>
      <point x="173" y="1100" type="curve"/>
      <point x="173" y="1242" type="line"/>
      <point x="253" y="1248"/>
      <point x="393" y="1310"/>
      <point x="465" y="1361" type="curve"/>
      <point x="610" y="1361" type="line"/>
      <point x="610" y="140" type="line"/>
      <point x="870" y="140" type="line"/>
    </contour>
  </outline>
</glyph>
<glyph name="three" format="1">
  <advance width="953"/>
  <unicode hex="0033"/>
  <outline>
    <contour>
      <point x="702" y="375" type="curve" smooth="yes"/>
      <point x="702" y="621"/>
      <point x="497" y="657"/>
      <point x="246" y="657" type="curve"/>
      <point x="246" y="793" type="line"/>
      <point x="291" y="793" type="line"/>
      <point x="482" y="798"/>
      <point x="653" y="832"/>
      <point x="653" y="1031" type="curve" smooth="yes"/>
      <point x="653" y="1181"/>
      <point x="564" y="1249"/>
      <point x="403" y="1249" type="curve" smooth="yes"/>
      <point x="278" y="1249"/>
      <point x="170" y="1209"/>
      <point x="98" y="1152" type="curve"/>
      <point x="47" y="1285" type="line"/>
      <point x="130" y="1348"/>
      <point x="250" y="1388"/>
      <point x="438" y="1388" type="curve" smooth="yes"/>
      <point x="639" y="1388"/>
      <point x="828" y="1269"/>
      <point x="828" y="1052" type="curve" smooth="yes"/>
      <point x="828" y="877"/>
      <point x="736" y="771"/>
      <point x="589" y="725" type="curve"/>
      <point x="756" y="689"/>
      <point x="861" y="564"/>
      <point x="861" y="373" type="curve" smooth="yes"/>
      <point x="861" y="130"/>
      <point x="667" y="-21"/>
      <point x="403" y="-21" type="curve" smooth="yes"/>
      <point x="226" y="-21"/>
      <point x="98" y="37"/>
      <point x="47" y="85" type="curve"/>
      <point x="98" y="218" type="line"/>
      <point x="166" y="164"/>
      <point x="267" y="117"/>
      <point x="404" y="117" type="curve" smooth="yes"/>
      <point x="582" y="117"/>
      <point x="702" y="209"/>
    </contour>
  </outline>
</glyph>
<glyph name="four" format="1">
  <advance width="1017"/>
  <unicode hex="0034"/>
  <outline>
    <contour>
      <point x="646" y="470" type="line"/>
      <point x="646" y="1155" type="line"/>
      <point x="191" y="470" type="line"/>
    </contour>
    <contour>
      <point x="629" y="1361" type="line"/>
      <point x="799" y="1361" type="line"/>
      <point x="799" y="470" type="line"/>
      <point x="966" y="470" type="line"/>
      <point x="954" y="338" type="line"/>
      <point x="799" y="338" type="line"/>
      <point x="799" y="0" type="line"/>
      <point x="646" y="0" type="line"/>
      <point x="646" y="338" type="line"/>
      <point x="31" y="338" type="line"/>
      <point x="31" y="477" type="line"/>
    </contour>
  </outline>
</glyph>
<glyph name="eight" format="1">
  <advance width="1038"/>
  <unicode hex="0038"/>
  <outline>
    <contour>
      <point x="521" y="776" type="curve"/>
      <point x="688" y="813"/>
      <point x="775" y="903"/>
      <point x="775" y="1048" type="curve" smooth="yes"/>
      <point x="775" y="1179"/>
      <point x="656" y="1249"/>
      <point x="521" y="1249" type="curve" smooth="yes"/>
      <point x="386" y="1249"/>
      <point x="264" y="1179"/>
      <point x="264" y="1048" type="curve" smooth="yes"/>
      <point x="264" y="903"/>
      <point x="354" y="813"/>
    </contour>
    <contour>
      <point x="521" y="117" type="curve" smooth="yes"/>
      <point x="684" y="117"/>
      <point x="804" y="209"/>
      <point x="804" y="361" type="curve" smooth="yes"/>
      <point x="804" y="511"/>
      <point x="684" y="603"/>
      <point x="521" y="640" type="curve"/>
      <point x="358" y="603"/>
      <point x="235" y="511"/>
      <point x="235" y="361" type="curve" smooth="yes"/>
      <point x="235" y="209"/>
      <point x="358" y="117"/>
    </contour>
    <contour>
      <point x="521" y="-21" type="curve" smooth="yes"/>
      <point x="278" y="-21"/>
      <point x="75" y="108"/>
      <point x="75" y="350" type="curve" smooth="yes"/>
      <point x="75" y="525"/>
      <point x="181" y="659"/>
      <point x="358" y="717" type="curve"/>
      <point x="201" y="773"/>
      <point x="103" y="879"/>
      <point x="103" y="1045" type="curve" smooth="yes"/>
      <point x="103" y="1264"/>
      <point x="280" y="1388"/>
      <point x="521" y="1388" type="curve" smooth="yes"/>
      <point x="761" y="1388"/>
      <point x="935" y="1264"/>
      <point x="935" y="1045" type="curve" smooth="yes"/>
      <point x="935" y="879"/>
      <point x="844" y="773"/>
      <point x="701" y="717" type="curve"/>
      <point x="864" y="659"/>
      <point x="964" y="525"/>
      <point x="964" y="350" type="curve" smooth="yes"/>
      <point x="964" y="108"/>
      <point x="764" y="-21"/>
    </contour>
  </outline>
</glyph>
<glyph name="nine" format="1">
  <advance width="1075"/>
  <unicode hex="0039"/>
  <outline>
    <contour>
      <point x="533" y="681" type="curve" smooth="yes"/>
      <point x="735" y="681"/>
      <point x="814" y="809"/>
      <point x="814" y="966" type="curve" smooth="yes"/>
      <point x="814" y="1123"/>
      <point x="726" y="1249"/>
      <point x="539" y="1249" type="curve" smooth="yes"/>
      <point x="352" y="1249"/>
      <point x="245" y="1118"/>
      <point x="245" y="961" type="curve" smooth="yes"/>
      <point x="245" y="794"/>
      <point x="349" y="681"/>
    </contour>
    <contour>
      <point x="422" y="0" type="curve"/>
      <point x="222" y="0" type="line"/>
      <point x="705" y="599" type="line"/>
      <point x="647" y="568"/>
      <point x="573" y="544"/>
      <point x="500" y="544" type="curve" smooth="yes"/>
      <point x="271" y="544"/>
      <point x="73" y="707"/>
      <point x="73" y="958" type="curve" smooth="yes"/>
      <point x="73" y="1201"/>
      <point x="255" y="1388"/>
      <point x="533" y="1388" type="curve" smooth="yes"/>
      <point x="824" y="1388"/>
      <point x="986" y="1194"/>
      <point x="986" y="948" type="curve" smooth="yes"/>
      <point x="986" y="768"/>
      <point x="928" y="648"/>
      <point x="788" y="459" type="curve"/>
      <point x="700" y="342"/>
      <point x="422" y="0"/>
    </contour>
  </outline>
</glyph>
<glyph name="C" format="1">
  <advance width="1171"/>
  <unicode hex="0043"/>
  <outline>
    <contour>
      <point x="717" y="-18" type="curve"/>
      <point x="331" y="-12"/>
      <point x="89" y="263"/>
      <point x="89" y="678" type="curve" smooth="yes"/>
      <point x="89" y="1083"/>
      <point x="330" y="1366"/>
      <point x="734" y="1366" type="curve" smooth="yes"/>
      <point x="893" y="1366"/>
      <point x="1018" y="1330"/>
      <point x="1117" y="1266" type="curve"/>
      <point x="1064" y="1142" type="line"/>
      <point x="975" y="1196"/>
      <point x="856" y="1228"/>
      <point x="736" y="1228" type="curve" smooth="yes"/>
      <point x="425" y="1228"/>
      <point x="258" y="991"/>
      <point x="258" y="672" type="curve" smooth="yes"/>
      <point x="258" y="354"/>
      <point x="421" y="120"/>
      <point x="752" y="120" type="curve" smooth="yes"/>
      <point x="867" y="120"/>
      <point x="975" y="149"/>
      <point x="1072" y="196" type="curve"/>
      <point x="1097" y="68" type="line"/>
      <point x="1033" y="28"/>
      <point x="885" y="-18"/>
    </contour>
    <contour>
      <point x="586" y="1346" type="line" smooth="yes"/>
    </contour>
    <contour>
      <point x="586" y="0" type="line" smooth="yes"/>
    </contour>
    <contour>
      <point x="586" y="1346" type="move" name="top"/>
    </contour>
    <contour>
      <point x="586" y="0" type="move" name="bottom"/>
    </contour>
  </outline>
</glyph>
<glyph name="E" format="1">
  <advance width="1076"/>
  <unicode hex="0045"/>
  <outline>
    <contour>
      <point x="335" y="1207" type="line"/>
      <point x="335" y="766" type="line"/>
      <point x="917" y="766" type="line"/>
      <point x="917" y="629" type="line"/>
      <point x="335" y="629" type="line"/>
      <point x="335" y="139" type="line"/>
      <point x="976" y="139" type="line"/>
      <point x="968" y="0" type="line"/>
      <point x="160" y="0" type="line"/>
      <point x="160" y="1346" type="line"/>
      <point x="976" y="1346" type="line"/>
      <point x="969" y="1207" type="line"/>
    </contour>
    <contour>
      <point x="538" y="1346" type="line" smooth="yes"/>
    </contour>
    <contour>
      <point x="538" y="0" type="line" smooth="yes"/>
    </contour>
    <contour>
      <point x="968" y="10" type="line" smooth="yes"/>
    </contour>
    <contour>
      <point x="538" y="1346" type="move" name="top"/>
    </contour>
    <contour>
      <point x="538" y="0" type="move" name="bottom"/>
    </contour>
    <contour>
      <point x="968" y="10" type="move" name="ogonek"/>
    </contour>
  </outline>
</glyph>
<glyph name="I" format="1">
  <advance width="491"/>
  <unicode hex="0049"/>
  <outline>
    <contour>
      <point x="158" y="0" type="line"/>
      <point x="158" y="1346" type="line"/>
      <point x="333" y="1346" type="line"/>
      <point x="333" y="0" type="line"/>
    </contour>
    <contour>
      <point x="246" y="1346" type="line" smooth="yes"/>
    </contour>
    <contour>
      <point x="442" y="10" type="line" smooth="yes"/>
    </contour>
    <contour>
      <point x="246" y="1346" type="move" name="top"/>
    </contour>
    <contour>
      <point x="442" y="10" type="move" name="ogonek"/>
    </contour>
  </outline>
</glyph>
<glyph name="K" format="1">
  <advance width="1153"/>
  <unicode hex="004B"/>
  <outline>
    <contour>
      <point x="902" y="1346" type="line"/>
      <point x="1122" y="1346" type="line"/>
      <point x="577" y="743" type="line"/>
      <point x="1150" y="0" type="line"/>
      <point x="932" y="0" type="line"/>
      <point x="439" y="646" type="line"/>
      <point x="335" y="543" type="line"/>
      <point x="335" y="0" type="line"/>
      <point x="160" y="0" type="line"/>
      <point x="160" y="1346" type="line"/>
      <point x="335" y="1346" type="line"/>
      <point x="335" y="732" type="line"/>
    </contour>
    <contour>
      <point x="577" y="1346" type="line" smooth="yes"/>
    </contour>
    <contour>
      <point x="577" y="0" type="line" smooth="yes"/>
    </contour>
    <contour>
      <point x="577" y="1346" type="move" name="top"/>
    </contour>
    <contour>
      <point x="577" y="0" type="move" name="bottom"/>
    </contour>
  </outline>
</glyph>
<glyph name="L" format="1">
  <advance width="954"/>
  <unicode hex="004C"/>
  <outline>
    <contour>
      <point x="911" y="140" type="line"/>
      <point x="905" y="0" type="line"/>
      <point x="160" y="0" type="line"/>
      <point x="160" y="1346" type="line"/>
      <point x="335" y="1346" type="line"/>
      <point x="335" y="140" type="line"/>
    </contour>
    <contour>
      <point x="477" y="1346" type="line" smooth="yes"/>
    </contour>
    <contour>
      <point x="477" y="0" type="line" smooth="yes"/>
    </contour>
    <contour>
      <point x="477" y="1346" type="move" name="top"/>
    </contour>
    <contour>
      <point x="477" y="0" type="move" name="bottom"/>
    </contour>
  </outline>
</glyph>
<glyph name="O" format="1">
  <advance width="1459"/>
  <unicode hex="004F"/>
  <outline>
    <contour>
      <point x="730" y="120" type="curve" smooth="yes"/>
      <point x="412" y="120"/>
      <point x="264" y="349"/>
      <point x="264" y="667" type="curve" smooth="yes"/>
      <point x="264" y="998"/>
      <point x="420" y="1228"/>
      <point x="731" y="1228" type="curve" smooth="yes"/>
      <point x="1042" y="1228"/>
      <point x="1196" y="997"/>
      <point x="1196" y="667" type="curve" smooth="yes"/>
      <point x="1196" y="349"/>
      <point x="1048" y="120"/>
    </contour>
    <contour>
      <point x="1370" y="667" type="curve" smooth="yes"/>
      <point x="1370" y="1092"/>
      <point x="1132" y="1366"/>
      <point x="731" y="1366" type="curve" smooth="yes"/>
      <point x="323" y="1366"/>
      <point x="89" y="1095"/>
      <point x="89" y="668" type="curve" smooth="yes"/>
      <point x="89" y="251"/>
      <point x="315" y="-18"/>
      <point x="730" y="-18" type="curve" smooth="yes"/>
      <point x="1140" y="-18"/>
      <point x="1370" y="257"/>
    </contour>
    <contour>
      <point x="730" y="1346" type="line" smooth="yes"/>
    </contour>
    <contour>
      <point x="730" y="1346" type="move" name="top"/>
    </contour>
  </outline>
</glyph>
<glyph name="Q" format="1">
  <advance width="1459"/>
  <unicode hex="0051"/>
  <outline>
    <contour>
      <point x="730" y="120" type="curve" smooth="yes"/>
      <point x="1048" y="120"/>
      <point x="1196" y="354"/>
      <point x="1196" y="672" type="curve" smooth="yes"/>
      <point x="1196" y="1002"/>
      <point x="1042" y="1228"/>
      <point x="731" y="1228" type="curve" smooth="yes"/>
      <point x="420" y="1228"/>
      <point x="264" y="1003"/>
      <point x="264" y="672" type="curve" smooth="yes"/>
      <point x="264" y="354"/>
      <point x="412" y="120"/>
    </contour>
    <contour>
      <point x="1233" y="-318" type="curve"/>
      <point x="1132" y="-421" type="line"/>
      <point x="1097" y="-386"/>
      <point x="913" y="-164"/>
      <point x="837" y="-7" type="curve"/>
      <point x="805" y="-12"/>
      <point x="765" y="-18"/>
      <point x="730" y="-18" type="curve" smooth="yes"/>
      <point x="315" y="-18"/>
      <point x="89" y="256"/>
      <point x="89" y="673" type="curve" smooth="yes"/>
      <point x="89" y="1100"/>
      <point x="323" y="1366"/>
      <point x="731" y="1366" type="curve" smooth="yes"/>
      <point x="1132" y="1366"/>
      <point x="1370" y="1097"/>
      <point x="1370" y="672" type="curve" smooth="yes"/>
      <point x="1370" y="356"/>
      <point x="1234" y="117"/>
      <point x="984" y="23" type="curve"/>
      <point x="1005" y="-11"/>
      <point x="1125" y="-211"/>
    </contour>
  </outline>
</glyph>
<glyph name="R" format="1">
  <advance width="1259"/>
  <unicode hex="0052"/>
  <outline>
    <contour>
      <point x="160" y="0" type="line"/>
      <point x="160" y="1346" type="line"/>
      <point x="604" y="1346" type="line" smooth="yes"/>
      <point x="928" y="1346"/>
      <point x="1150" y="1305"/>
      <point x="1150" y="998" type="curve" smooth="yes"/>
      <point x="1150" y="830"/>
      <point x="1087" y="718"/>
      <point x="895" y="663" type="curve"/>
      <point x="895" y="658"/>
      <point x="952" y="543"/>
      <point x="983" y="475" type="curve" smooth="yes"/>
      <point x="1198" y="0" type="line"/>
      <point x="1016" y="0" type="line"/>
      <point x="835" y="422" type="line" smooth="yes"/>
      <point x="800" y="502"/>
      <point x="767" y="581"/>
      <point x="739" y="627" type="curve"/>
      <point x="713" y="625"/>
      <point x="612" y="622"/>
      <point x="581" y="622" type="curve" smooth="yes"/>
      <point x="564" y="622"/>
      <point x="335" y="624"/>
      <point x="335" y="624" type="curve"/>
      <point x="335" y="0" type="line"/>
    </contour>
    <contour>
      <point x="663" y="762" type="line" smooth="yes"/>
      <point x="903" y="762"/>
      <point x="976" y="836"/>
      <point x="976" y="996" type="curve" smooth="yes"/>
      <point x="976" y="1138"/>
      <point x="895" y="1205"/>
      <point x="683" y="1205" type="curve" smooth="yes"/>
      <point x="335" y="1205" type="line"/>
      <point x="335" y="762" type="line"/>
    </contour>
    <contour>
      <point x="630" y="1346" type="line" smooth="yes"/>
    </contour>
    <contour>
      <point x="630" y="0" type="line" smooth="yes"/>
    </contour>
    <contour>
      <point x="630" y="1346" type="move" name="top"/>
    </contour>
    <contour>
      <point x="630" y="0" type="move" name="bottom"/>
    </contour>
  </outline>
</glyph>
<glyph name="T" format="1">
  <advance width="1081"/>
  <unicode hex="0054"/>
  <outline>
    <contour>
      <point x="1036" y="1346" type="line"/>
      <point x="1036" y="1207" type="line"/>
      <point x="628" y="1207" type="line"/>
      <point x="628" y="0" type="line"/>
      <point x="453" y="0" type="line"/>
      <point x="453" y="1207" type="line"/>
      <point x="46" y="1207" type="line"/>
      <point x="46" y="1346" type="line"/>
    </contour>
    <contour>
      <point x="541" y="1346" type="line" smooth="yes"/>
    </contour>
    <contour>
      <point x="541" y="0" type="line" smooth="yes"/>
    </contour>
    <contour>
      <point x="541" y="673" type="line" smooth="yes"/>
    </contour>
    <contour>
      <point x="541" y="1346" type="move" name="top"/>
    </contour>
    <contour>
      <point x="541" y="0" type="move" name="bottom"/>
    </contour>
    <contour>
      <point x="541" y="673" type="move" name="center"/>
    </contour>
  </outline>
</glyph>
<glyph name="U" format="1">
  <advance width="1327"/>
  <unicode hex="0055"/>
  <outline>
    <contour>
      <point x="662" y="-18" type="curve" smooth="yes"/>
      <point x="304" y="-18"/>
      <point x="153" y="196"/>
      <point x="153" y="495" type="curve" smooth="yes"/>
      <point x="153" y="1346" type="line"/>
      <point x="328" y="1346" type="line"/>
      <point x="328" y="492" type="line" smooth="yes"/>
      <point x="328" y="248"/>
      <point x="421" y="120"/>
      <point x="662" y="120" type="curve" smooth="yes"/>
      <point x="897" y="120"/>
      <point x="997" y="248"/>
      <point x="997" y="492" type="curve" smooth="yes"/>
      <point x="997" y="1346" type="line"/>
      <point x="1172" y="1346" type="line"/>
      <point x="1172" y="493" type="line" smooth="yes"/>
      <point x="1172" y="195"/>
      <point x="1020" y="-18"/>
    </contour>
    <contour>
      <point x="664" y="1346" type="line" smooth="yes"/>
    </contour>
    <contour>
      <point x="1194" y="10" type="line" smooth="yes"/>
    </contour>
    <contour>
      <point x="664" y="1346" type="move" name="top"/>
    </contour>
    <contour>
      <point x="1194" y="10" type="move" name="ogonek"/>
    </contour>
  </outline>
</glyph>
<glyph name="V" format="1">
  <advance width="1172"/>
  <unicode hex="0056"/>
  <outline>
    <contour>
      <point x="668" y="0" type="line"/>
      <point x="1168" y="1346" type="line"/>
      <point x="988" y="1346" type="line"/>
      <point x="896" y="1088"/>
      <point x="688" y="495"/>
      <point x="688" y="495" type="curve"/>
      <point x="673" y="458"/>
      <point x="586" y="197"/>
      <point x="586" y="197" type="curve"/>
      <point x="586" y="197"/>
      <point x="499" y="454"/>
      <point x="485" y="492" type="curve" smooth="yes"/>
      <point x="186" y="1346" type="line"/>
      <point x="4" y="1346" type="line"/>
      <point x="504" y="0" type="line"/>
    </contour>
  </outline>
</glyph>
<glyph name="X" format="1">
  <advance width="1124"/>
  <unicode hex="0058"/>
  <outline>
    <contour>
      <point x="653" y="679" type="line"/>
      <point x="1101" y="1346" type="line"/>
      <point x="919" y="1346" type="line"/>
      <point x="562" y="816" type="line"/>
      <point x="206" y="1346" type="line"/>
      <point x="24" y="1346" type="line"/>
      <point x="471" y="679" type="line"/>
      <point x="24" y="0" type="line"/>
      <point x="206" y="0" type="line"/>
      <point x="562" y="542" type="line"/>
      <point x="919" y="0" type="line"/>
      <point x="1101" y="0" type="line"/>
    </contour>
  </outline>
</glyph>
<glyph name="e" format="1">
  <advance width="1020"/>
  <unicode hex="0065"/>
  <outline>
    <contour>
      <point x="560" y="-21" type="curve" smooth="yes"/>
      <point x="709" y="-21"/>
      <point x="827" y="7"/>
      <point x="923" y="65" type="curve"/>
      <point x="899" y="197" type="line"/>
      <point x="811" y="151"/>
      <point x="710" y="112"/>
      <point x="585" y="112" type="curve" smooth="yes"/>
      <point x="395" y="112"/>
      <point x="260" y="240"/>
      <point x="256" y="469" type="curve"/>
      <point x="939" y="469" type="line"/>
      <point x="939" y="469"/>
      <point x="945" y="530"/>
      <point x="945" y="553" type="curve" smooth="yes"/>
      <point x="945" y="832"/>
      <point x="798" y="1019"/>
      <point x="541" y="1019" type="curve" smooth="yes"/>
      <point x="278" y="1019"/>
      <point x="84" y="805"/>
      <point x="84" y="496" type="curve" smooth="yes"/>
      <point x="84" y="176"/>
      <point x="271" y="-21"/>
    </contour>
    <contour>
      <point x="260" y="582" type="line"/>
      <point x="277" y="772"/>
      <point x="390" y="888"/>
      <point x="546" y="888" type="curve" smooth="yes"/>
      <point x="707" y="888"/>
      <point x="776" y="779"/>
      <point x="781" y="582" type="curve"/>
    </contour>
    <contour>
      <point x="510" y="999" type="line" smooth="yes"/>
    </contour>
    <contour>
      <point x="510" y="0" type="line" smooth="yes"/>
    </contour>
    <contour>
      <point x="918" y="10" type="line" smooth="yes"/>
    </contour>
    <contour>
      <point x="510" y="999" type="move" name="top"/>
    </contour>
    <contour>
      <point x="510" y="0" type="move" name="bottom"/>
    </contour>
    <contour>
      <point x="918" y="10" type="move" name="ogonek"/>
    </contour>
  </outline>
</glyph>
<glyph name="g" format="1">
  <advance width="1153"/>
  <unicode hex="0067"/>
  <outline>
    <contour>
      <point x="515" y="-425" type="curve" smooth="yes"/>
      <point x="924" y="-425"/>
      <point x="1016" y="-52"/>
      <point x="1016" y="196" type="curve" smooth="yes"/>
      <point x="1016" y="998" type="line"/>
      <point x="857" y="998" type="line"/>
      <point x="845" y="865" type="line"/>
      <point x="769" y="968"/>
      <point x="667" y="1019"/>
      <point x="534" y="1019" type="curve" smooth="yes"/>
      <point x="229" y="1019"/>
      <point x="84" y="780"/>
      <point x="84" y="496" type="curve" smooth="yes"/>
      <point x="84" y="249"/>
      <point x="235" y="0"/>
      <point x="531" y="0" type="curve" smooth="yes"/>
      <point x="689" y="0"/>
      <point x="794" y="73"/>
      <point x="841" y="191" type="curve"/>
      <point x="841" y="73" type="line" smooth="yes"/>
      <point x="841" y="-83"/>
      <point x="746" y="-291"/>
      <point x="502" y="-291" type="curve" smooth="yes"/>
      <point x="401" y="-291"/>
      <point x="303" y="-271"/>
      <point x="259" y="-262" type="curve"/>
      <point x="248" y="-390" type="line"/>
      <point x="288" y="-400"/>
      <point x="396" y="-425"/>
    </contour>
    <contour>
      <point x="544" y="130" type="curve" smooth="yes"/>
      <point x="337" y="130"/>
      <point x="258" y="333"/>
      <point x="258" y="504" type="curve" smooth="yes"/>
      <point x="258" y="677"/>
      <point x="331" y="891"/>
      <point x="548" y="891" type="curve" smooth="yes"/>
      <point x="755" y="891"/>
      <point x="841" y="732"/>
      <point x="841" y="543" type="curve" smooth="yes"/>
      <point x="841" y="470" type="line" smooth="yes"/>
      <point x="841" y="291"/>
      <point x="759" y="130"/>
    </contour>
    <contour>
      <point x="577" y="999" type="line" smooth="yes"/>
    </contour>
    <contour>
      <point x="577" y="999" type="move" name="top"/>
    </contour>
  </outline>
</glyph>
<glyph name="m" format="1">
  <advance width="1767"/>
  <unicode hex="006D"/>
  <outline>
    <contour>
      <point x="326" y="525" type="line" smooth="yes"/>
      <point x="326" y="581"/>
      <point x="329" y="631"/>
      <point x="334" y="677" type="curve"/>
      <point x="367" y="797"/>
      <point x="452" y="889"/>
      <point x="611" y="889" type="curve" smooth="yes"/>
      <point x="758" y="889"/>
      <point x="806" y="787"/>
      <point x="806" y="563" type="curve" smooth="yes"/>
      <point x="806" y="0" type="line"/>
      <point x="982" y="0" type="line"/>
      <point x="982" y="535" type="line" smooth="yes"/>
      <point x="982" y="586"/>
      <point x="985" y="640"/>
      <point x="990" y="684" type="curve"/>
      <point x="1030" y="813"/>
      <point x="1116" y="889"/>
      <point x="1259" y="889" type="curve" smooth="yes"/>
      <point x="1436" y="889"/>
      <point x="1461" y="734"/>
      <point x="1461" y="520" type="curve" smooth="yes"/>
      <point x="1461" y="0" type="line"/>
      <point x="1636" y="0" type="line"/>
      <point x="1636" y="642" type="line" smooth="yes"/>
      <point x="1636" y="886"/>
      <point x="1511" y="1019"/>
      <point x="1285" y="1019" type="curve" smooth="yes"/>
      <point x="1142" y="1019"/>
      <point x="1004" y="962"/>
      <point x="930" y="842" type="curve"/>
      <point x="902" y="920"/>
      <point x="830" y="1019"/>
      <point x="636" y="1019" type="curve" smooth="yes"/>
      <point x="484" y="1019"/>
      <point x="373" y="939"/>
      <point x="318" y="855" type="curve"/>
      <point x="299" y="998" type="line"/>
      <point x="149" y="998" type="line"/>
      <point x="149" y="936"/>
      <point x="151" y="0"/>
      <point x="151" y="0" type="curve"/>
      <point x="326" y="0" type="line"/>
    </contour>
  </outline>
</glyph>
<glyph name="p" format="1">
  <advance width="1166"/>
  <unicode hex="0070"/>
  <outline>
    <contour>
      <point x="619" y="107" type="curve" smooth="yes"/>
      <point x="810" y="107"/>
      <point x="906" y="261"/>
      <point x="906" y="500" type="curve" smooth="yes"/>
      <point x="906" y="734"/>
      <point x="814" y="890"/>
      <point x="620" y="890" type="curve" smooth="yes"/>
      <point x="414" y="890"/>
      <point x="324" y="746"/>
      <point x="324" y="516" type="curve" smooth="yes"/>
      <point x="324" y="257"/>
      <point x="419" y="107"/>
    </contour>
    <contour>
      <point x="149" y="998" type="line"/>
      <point x="307" y="998" type="line"/>
      <point x="324" y="835" type="line"/>
      <point x="377" y="960"/>
      <point x="505" y="1019"/>
      <point x="642" y="1019" type="curve" smooth="yes"/>
      <point x="921" y="1019"/>
      <point x="1081" y="800"/>
      <point x="1081" y="494" type="curve" smooth="yes"/>
      <point x="1081" y="196"/>
      <point x="903" y="-21"/>
      <point x="643" y="-21" type="curve" smooth="yes"/>
      <point x="511" y="-21"/>
      <point x="375" y="48"/>
      <point x="319" y="154" type="curve"/>
      <point x="323" y="88"/>
      <point x="324" y="7"/>
      <point x="324" y="-55" type="curve" smooth="yes"/>
      <point x="324" y="-423" type="line"/>
      <point x="149" y="-433" type="line"/>
    </contour>
  </outline>
</glyph>
<glyph name="q" format="1">
  <advance width="1157"/>
  <unicode hex="0071"/>
  <outline>
    <contour>
      <point x="551" y="107" type="curve" smooth="yes"/>
      <point x="360" y="107"/>
      <point x="260" y="261"/>
      <point x="260" y="500" type="curve" smooth="yes"/>
      <point x="260" y="734"/>
      <point x="357" y="890"/>
      <point x="551" y="890" type="curve" smooth="yes"/>
      <point x="757" y="890"/>
      <point x="843" y="746"/>
      <point x="843" y="516" type="curve" smooth="yes"/>
      <point x="843" y="257"/>
      <point x="766" y="107"/>
    </contour>
    <contour>
      <point x="1017" y="998" type="line"/>
      <point x="860" y="998" type="line"/>
      <point x="843" y="835" type="line"/>
      <point x="788" y="953"/>
      <point x="661" y="1019"/>
      <point x="524" y="1019" type="curve" smooth="yes"/>
      <point x="245" y="1019"/>
      <point x="86" y="800"/>
      <point x="86" y="494" type="curve" smooth="yes"/>
      <point x="86" y="196"/>
      <point x="263" y="-21"/>
      <point x="523" y="-21" type="curve" smooth="yes"/>
      <point x="655" y="-21"/>
      <point x="781" y="43"/>
      <point x="847" y="136" type="curve"/>
      <point x="843" y="70"/>
      <point x="843" y="7"/>
      <point x="843" y="-55" type="curve" smooth="yes"/>
      <point x="843" y="-433" type="line"/>
      <point x="1017" y="-423" type="line"/>
    </contour>
  </outline>
</glyph>
<glyph name="u" format="1">
  <advance width="1110"/>
  <unicode hex="0075"/>
  <outline>
    <contour>
      <point x="961" y="998" type="line"/>
      <point x="786" y="998" type="line"/>
      <point x="786" y="452" type="line" smooth="yes"/>
      <point x="786" y="401"/>
      <point x="783" y="355"/>
      <point x="777" y="312" type="curve"/>
      <point x="747" y="197"/>
      <point x="672" y="109"/>
      <point x="510" y="109" type="curve" smooth="yes"/>
      <point x="357" y="109"/>
      <point x="320" y="210"/>
      <point x="320" y="375" type="curve" smooth="yes"/>
      <point x="320" y="998" type="line"/>
      <point x="146" y="998" type="line"/>
      <point x="146" y="387" type="line" smooth="yes"/>
      <point x="146" y="119"/>
      <point x="250" y="-21"/>
      <point x="480" y="-21" type="curve" smooth="yes"/>
      <point x="623" y="-21"/>
      <point x="719" y="49"/>
      <point x="794" y="143" type="curve"/>
      <point x="813" y="0" type="line"/>
      <point x="961" y="0" type="line"/>
    </contour>
    <contour>
      <point x="555" y="999" type="line" smooth="yes"/>
    </contour>
    <contour>
      <point x="999" y="10" type="line" smooth="yes"/>
    </contour>
    <contour>
      <point x="555" y="999" type="move" name="top"/>
    </contour>
    <contour>
      <point x="999" y="10" type="move" name="ogonek"/>
    </contour>
  </outline>
</glyph>
<glyph name="z" format="1">
  <advance width="808"/>
  <unicode hex="007A"/>
  <outline>
    <contour>
      <point x="77" y="998" type="line"/>
      <point x="744" y="998" type="line"/>
      <point x="744" y="873" type="line"/>
      <point x="235" y="120" type="line"/>
      <point x="761" y="120" type="line"/>
      <point x="761" y="0" type="line"/>
      <point x="56" y="0" type="line"/>
      <point x="56" y="117" type="line"/>
      <point x="574" y="878" type="line"/>
      <point x="77" y="878" type="line"/>
    </contour>
    <contour>
      <point x="404" y="999" type="line" smooth="yes"/>
    </contour>
    <contour>
      <point x="404" y="999" type="move" name="top"/>
    </contour>
  </outline>
</glyph>
<glyph name="bar" format="1">
  <advance width="406"/>
  <unicode hex="007C"/>
  <outline>
    <contour>
      <point x="137" y="-364" type="line"/>
      <point x="137" y="1437" type="line"/>
      <point x="269" y="1437" type="line"/>
      <point x="269" y="-364" type="line"/>
    </contour>
  </outline>
</glyph>
<glyph name="ae" format="1">
  <advance width="1587"/>
  <unicode hex="00E6"/>
  <outline>
    <contour>
      <point x="848" y="560" type="curve"/>
      <point x="1318" y="586" type="line"/>
      <point x="1318" y="595" type="line"/>
      <point x="1316" y="802"/>
      <point x="1256" y="895"/>
      <point x="1122" y="895" type="curve" smooth="yes"/>
      <point x="939" y="895"/>
      <point x="858" y="747"/>
    </contour>
    <contour>
      <point x="419" y="103" type="curve" smooth="yes"/>
      <point x="520" y="103"/>
      <point x="652" y="154"/>
      <point x="756" y="189" type="curve"/>
      <point x="715" y="264"/>
      <point x="692" y="351"/>
      <point x="687" y="454" type="curve"/>
      <point x="667" y="453"/>
      <point x="647" y="452"/>
      <point x="629" y="450" type="curve" smooth="yes"/>
      <point x="337" y="428"/>
      <point x="266" y="373"/>
      <point x="266" y="265" type="curve" smooth="yes"/>
      <point x="266" y="144"/>
      <point x="332" y="103"/>
    </contour>
    <contour>
      <point x="408" y="-24" type="curve" smooth="yes"/>
      <point x="250" y="-24"/>
      <point x="113" y="54"/>
      <point x="113" y="273" type="curve" smooth="yes"/>
      <point x="113" y="513"/>
      <point x="356" y="543"/>
      <point x="632" y="558" type="curve" smooth="yes"/>
      <point x="690" y="561" type="line"/>
      <point x="690" y="711" type="line" smooth="yes"/>
      <point x="690" y="832"/>
      <point x="645" y="888"/>
      <point x="517" y="888" type="curve" smooth="yes"/>
      <point x="392" y="888"/>
      <point x="269" y="854"/>
      <point x="193" y="814" type="curve"/>
      <point x="160" y="939" type="line"/>
      <point x="233" y="981"/>
      <point x="377" y="1023"/>
      <point x="513" y="1023" type="curve" smooth="yes"/>
      <point x="658" y="1023"/>
      <point x="775" y="966"/>
      <point x="802" y="848" type="curve"/>
      <point x="868" y="967"/>
      <point x="993" y="1023"/>
      <point x="1125" y="1023" type="curve" smooth="yes"/>
      <point x="1373" y="1023"/>
      <point x="1465" y="827"/>
      <point x="1465" y="622" type="curve" smooth="yes"/>
      <point x="1465" y="535"/>
      <point x="1442" y="493"/>
      <point x="1295" y="486" type="curve" smooth="yes"/>
      <point x="843" y="463" type="line"/>
      <point x="858" y="250"/>
      <point x="933" y="108"/>
      <point x="1127" y="108" type="curve" smooth="yes"/>
      <point x="1244" y="108"/>
      <point x="1357" y="163"/>
      <point x="1421" y="208" type="curve"/>
      <point x="1468" y="98" type="line"/>
      <point x="1394" y="34"/>
      <point x="1277" y="-23"/>
      <point x="1117" y="-23" type="curve" smooth="yes"/>
      <point x="986" y="-23"/>
      <point x="892" y="22"/>
      <point x="819" y="102" type="curve"/>
      <point x="712" y="36"/>
      <point x="550" y="-24"/>
    </contour>
    <contour>
      <point x="794" y="999" type="line" smooth="yes"/>
    </contour>
    <contour>
      <point x="794" y="999" type="move" name="top"/>
    </contour>
  </outline>
</glyph>
<glyph name="ij" format="1">
  <advance width="942"/>
  <unicode hex="0133"/>
  <outline>
    <contour>
      <point x="632" y="1181" type="line"/>
      <point x="632" y="1361" type="line"/>
      <point x="806" y="1361" type="line"/>
      <point x="806" y="1181" type="line"/>
    </contour>
    <contour>
      <point x="456" y="-398" type="line"/>
      <point x="436" y="-257" type="line"/>
      <point x="483" y="-257" type="line" smooth="yes"/>
      <point x="620" y="-257"/>
      <point x="632" y="-219"/>
      <point x="632" y="-121" type="curve" smooth="yes"/>
      <point x="632" y="-52" type="line"/>
      <point x="632" y="998" type="line"/>
      <point x="806" y="998" type="line"/>
      <point x="806" y="-68" type="line" smooth="yes"/>
      <point x="806" y="-312"/>
      <point x="751" y="-398"/>
      <point x="503" y="-398" type="curve" smooth="yes"/>
    </contour>
    <contour>
      <point x="136" y="1181" type="line"/>
      <point x="136" y="1361" type="line"/>
      <point x="311" y="1361" type="line"/>
      <point x="311" y="1181" type="line"/>
    </contour>
    <contour>
      <point x="136" y="0" type="line"/>
      <point x="136" y="998" type="line"/>
      <point x="311" y="998" type="line"/>
      <point x="311" y="0" type="line"/>
    </contour>
  </outline>
</glyph>
<glyph name="uni01C6" format="1">
  <advance width="2034"/>
  <unicode hex="01C6"/>
  <outline>
    <contour>
      <point x="1234" y="998" type="line"/>
      <point x="1901" y="998" type="line"/>
      <point x="1901" y="873" type="line"/>
      <point x="1391" y="120" type="line"/>
      <point x="1917" y="120" type="line"/>
      <point x="1917" y="0" type="line"/>
      <point x="1213" y="0" type="line"/>
      <point x="1213" y="117" type="line"/>
      <point x="1731" y="878" type="line"/>
      <point x="1234" y="878" type="line"/>
    </contour>
    <contour>
      <point x="1833" y="1521" type="line"/>
      <point x="1662" y="1168" type="line"/>
      <point x="1469" y="1168" type="line"/>
      <point x="1298" y="1521" type="line"/>
      <point x="1418" y="1521" type="line"/>
      <point x="1563" y="1237" type="line"/>
      <point x="1711" y="1521" type="line"/>
    </contour>
    <contour>
      <point x="1041" y="0" type="line"/>
      <point x="884" y="0" type="line"/>
      <point x="866" y="163" type="line"/>
      <point x="811" y="45"/>
      <point x="685" y="-21"/>
      <point x="548" y="-21" type="curve" smooth="yes"/>
      <point x="269" y="-21"/>
      <point x="109" y="198"/>
      <point x="109" y="504" type="curve" smooth="yes"/>
      <point x="109" y="807"/>
      <point x="287" y="1019"/>
      <point x="547" y="1019" type="curve" smooth="yes"/>
      <point x="679" y="1019"/>
      <point x="805" y="955"/>
      <point x="871" y="862" type="curve"/>
      <point x="867" y="928"/>
      <point x="866" y="991"/>
      <point x="866" y="1053" type="curve" smooth="yes"/>
      <point x="866" y="1417" type="line"/>
      <point x="1041" y="1431" type="line"/>
    </contour>
    <contour>
      <point x="575" y="891" type="curve" smooth="yes"/>
      <point x="384" y="891"/>
      <point x="284" y="738"/>
      <point x="284" y="499" type="curve" smooth="yes"/>
      <point x="284" y="265"/>
      <point x="380" y="108"/>
      <point x="574" y="108" type="curve" smooth="yes"/>
      <point x="780" y="108"/>
      <point x="866" y="252"/>
      <point x="866" y="482" type="curve" smooth="yes"/>
      <point x="866" y="741"/>
      <point x="790" y="891"/>
    </contour>
  </outline>
</glyph>
<glyph name="uni01C8" format="1">
  <advance width="1447"/>
  <unicode hex="01C8"/>
  <outline>
    <contour>
      <point x="1137" y="1181" type="line"/>
      <point x="1137" y="1361" type="line"/>
      <point x="1311" y="1361" type="line"/>
      <point x="1311" y="1181" type="line"/>
    </contour>
    <contour>
      <point x="961" y="-398" type="line"/>
      <point x="941" y="-257" type="line"/>
      <point x="988" y="-257" type="line" smooth="yes"/>
      <point x="1125" y="-257"/>
      <point x="1138" y="-219"/>
      <point x="1138" y="-121" type="curve" smooth="yes"/>
      <point x="1138" y="-101"/>
      <point x="1137" y="-78"/>
      <point x="1137" y="-52" type="curve" smooth="yes"/>
      <point x="1137" y="998" type="line"/>
      <point x="1311" y="998" type="line"/>
      <point x="1311" y="-68" type="line" smooth="yes"/>
      <point x="1311" y="-312"/>
      <point x="1256" y="-398"/>
      <point x="1008" y="-398" type="curve" smooth="yes"/>
    </contour>
    <contour>
      <point x="887" y="140" type="line"/>
      <point x="882" y="0" type="line"/>
      <point x="136" y="0" type="line"/>
      <point x="136" y="1346" type="line"/>
      <point x="311" y="1346" type="line"/>
      <point x="311" y="140" type="line"/>
    </contour>
  </outline>
</glyph>
<glyph name="uni01CA" format="1">
  <advance width="1996"/>
  <unicode hex="01CA"/>
  <outline>
    <contour>
      <point x="1464" y="-195" type="line"/>
      <point x="1445" y="-45" type="line"/>
      <point x="1512" y="-45" type="line" smooth="yes"/>
      <point x="1678" y="-45"/>
      <point x="1687" y="51"/>
      <point x="1687" y="186" type="curve" smooth="yes"/>
      <point x="1687" y="1346" type="line"/>
      <point x="1862" y="1346" type="line"/>
      <point x="1862" y="219" type="line" smooth="yes"/>
      <point x="1862" y="-61"/>
      <point x="1816" y="-195"/>
      <point x="1496" y="-195" type="curve" smooth="yes"/>
    </contour>
    <contour>
      <point x="1096" y="219" type="curve"/>
      <point x="1096" y="219"/>
      <point x="1090" y="509"/>
      <point x="1090" y="555" type="curve" smooth="yes"/>
      <point x="1090" y="1346" type="line"/>
      <point x="1243" y="1346" type="line"/>
      <point x="1243" y="0" type="line"/>
      <point x="1065" y="0" type="line"/>
      <point x="806" y="377"/>
      <point x="540" y="747"/>
      <point x="284" y="1127" type="curve"/>
      <point x="284" y="1127"/>
      <point x="289" y="894"/>
      <point x="289" y="786" type="curve" smooth="yes"/>
      <point x="289" y="0" type="line"/>
      <point x="136" y="0" type="line"/>
      <point x="136" y="1346" type="line"/>
      <point x="312" y="1346" type="line"/>
      <point x="572" y="970"/>
      <point x="838" y="598"/>
    </contour>
  </outline>
</glyph>
<glyph name="uni01CB" format="1">
  <advance width="1898"/>
  <unicode hex="01CB"/>
  <outline>
    <contour>
      <point x="1587" y="1181" type="line"/>
      <point x="1587" y="1361" type="line"/>
      <point x="1762" y="1361" type="line"/>
      <point x="1762" y="1181" type="line"/>
    </contour>
    <contour>
      <point x="1411" y="-398" type="line"/>
      <point x="1391" y="-257" type="line"/>
      <point x="1439" y="-257" type="line" smooth="yes"/>
      <point x="1576" y="-257"/>
      <point x="1588" y="-219"/>
      <point x="1588" y="-121" type="curve" smooth="yes"/>
      <point x="1588" y="-101"/>
      <point x="1587" y="-78"/>
      <point x="1587" y="-52" type="curve" smooth="yes"/>
      <point x="1587" y="998" type="line"/>
      <point x="1762" y="998" type="line"/>
      <point x="1762" y="-68" type="line" smooth="yes"/>
      <point x="1762" y="-312"/>
      <point x="1707" y="-398"/>
      <point x="1459" y="-398" type="curve" smooth="yes"/>
    </contour>
    <contour>
      <point x="1096" y="219" type="curve"/>
      <point x="1096" y="219"/>
      <point x="1090" y="509"/>
      <point x="1090" y="555" type="curve" smooth="yes"/>
      <point x="1090" y="1346" type="line"/>
      <point x="1243" y="1346" type="line"/>
      <point x="1243" y="0" type="line"/>
      <point x="1065" y="0" type="line"/>
      <point x="806" y="377"/>
      <point x="540" y="747"/>
      <point x="284" y="1127" type="curve"/>
      <point x="284" y="1127"/>
      <point x="289" y="894"/>
      <point x="289" y="786" type="curve" smooth="yes"/>
      <point x="289" y="0" type="line"/>
      <point x="136" y="0" type="line"/>
      <point x="136" y="1346" type="line"/>
      <point x="312" y="1346" type="line"/>
      <point x="572" y="970"/>
      <point x="838" y="598"/>
    </contour>
  </outline>
</glyph>
<glyph name="uni01CC" format="1">
  <advance width="1598"/>
  <unicode hex="01CC"/>
  <outline>
    <contour>
      <point x="1288" y="1181" type="line"/>
      <point x="1288" y="1361" type="line"/>
      <point x="1462" y="1361" type="line"/>
      <point x="1462" y="1181" type="line"/>
    </contour>
    <contour>
      <point x="1112" y="-398" type="line"/>
      <point x="1092" y="-257" type="line"/>
      <point x="1139" y="-257" type="line" smooth="yes"/>
      <point x="1276" y="-257"/>
      <point x="1289" y="-219"/>
      <point x="1289" y="-121" type="curve" smooth="yes"/>
      <point x="1289" y="-101"/>
      <point x="1288" y="-78"/>
      <point x="1288" y="-52" type="curve" smooth="yes"/>
      <point x="1288" y="998" type="line"/>
      <point x="1462" y="998" type="line"/>
      <point x="1462" y="-68" type="line" smooth="yes"/>
      <point x="1462" y="-312"/>
      <point x="1407" y="-398"/>
      <point x="1159" y="-398" type="curve" smooth="yes"/>
    </contour>
    <contour>
      <point x="130" y="998" type="line"/>
      <point x="278" y="998" type="line"/>
      <point x="298" y="855" type="line"/>
      <point x="370" y="963"/>
      <point x="473" y="1019"/>
      <point x="616" y="1019" type="curve" smooth="yes"/>
      <point x="846" y="1019"/>
      <point x="945" y="880"/>
      <point x="945" y="612" type="curve" smooth="yes"/>
      <point x="945" y="0" type="line"/>
      <point x="771" y="0" type="line"/>
      <point x="771" y="623" type="line" smooth="yes"/>
      <point x="771" y="788"/>
      <point x="734" y="889"/>
      <point x="581" y="889" type="curve" smooth="yes"/>
      <point x="419" y="889"/>
      <point x="344" y="801"/>
      <point x="314" y="686" type="curve"/>
      <point x="308" y="643"/>
      <point x="305" y="597"/>
      <point x="305" y="546" type="curve" smooth="yes"/>
      <point x="305" y="0" type="line"/>
      <point x="130" y="0" type="line"/>
    </contour>
  </outline>
</glyph>
<glyph name="uni01F3" format="1">
  <advance width="2032"/>
  <unicode hex="01F3"/>
  <outline>
    <contour>
      <point x="1234" y="998" type="line"/>
      <point x="1901" y="998" type="line"/>
      <point x="1901" y="873" type="line"/>
      <point x="1391" y="120" type="line"/>
      <point x="1917" y="120" type="line"/>
      <point x="1917" y="0" type="line"/>
      <point x="1213" y="0" type="line"/>
      <point x="1213" y="117" type="line"/>
      <point x="1731" y="878" type="line"/>
      <point x="1234" y="878" type="line"/>
    </contour>
    <contour>
      <point x="1041" y="0" type="line"/>
      <point x="884" y="0" type="line"/>
      <point x="866" y="163" type="line"/>
      <point x="811" y="45"/>
      <point x="685" y="-21"/>
      <point x="548" y="-21" type="curve" smooth="yes"/>
      <point x="269" y="-21"/>
      <point x="109" y="198"/>
      <point x="109" y="504" type="curve" smooth="yes"/>
      <point x="109" y="807"/>
      <point x="287" y="1019"/>
      <point x="547" y="1019" type="curve" smooth="yes"/>
      <point x="679" y="1019"/>
      <point x="805" y="955"/>
      <point x="871" y="862" type="curve"/>
      <point x="867" y="928"/>
      <point x="866" y="991"/>
      <point x="866" y="1053" type="curve" smooth="yes"/>
      <point x="866" y="1417" type="line"/>
      <point x="1041" y="1431" type="line"/>
    </contour>
    <contour>
      <point x="575" y="891" type="curve" smooth="yes"/>
      <point x="384" y="891"/>
      <point x="284" y="738"/>
      <point x="284" y="499" type="curve" smooth="yes"/>
      <point x="284" y="265"/>
      <point x="380" y="108"/>
      <point x="574" y="108" type="curve" smooth="yes"/>
      <point x="780" y="108"/>
      <point x="866" y="252"/>
      <point x="866" y="482" type="curve" smooth="yes"/>
      <point x="866" y="741"/>
      <point x="790" y="891"/>
    </contour>
  </outline>
</glyph>
<glyph name="caron" format="1">
  <advance width="728"/>
  <unicode hex="02C7"/>
  <outline>
    <contour>
      <point x="268" y="1138" type="line"/>
      <point x="98" y="1491" type="line"/>
      <point x="217" y="1491" type="line"/>
      <point x="364" y="1208" type="line"/>
      <point x="511" y="1491" type="line"/>
      <point x="632" y="1491" type="line"/>
      <point x="462" y="1138" type="line"/>
    </contour>
    <contour>
      <point x="365" y="999" type="line" smooth="yes"/>
    </contour>
    <contour>
      <point x="365" y="999" type="move" name="_top"/>
    </contour>
  </outline>
</glyph>
<glyph name="afii10055" format="1">
  <advance width="432"/>
  <unicode hex="0406"/>
  <outline>
    <contour>
      <point x="136" y="0" type="line"/>
      <point x="136" y="1362" type="line"/>
      <point x="297" y="1362" type="line"/>
      <point x="297" y="0" type="line"/>
    </contour>
    <contour>
      <point x="216" y="1346" type="line" smooth="yes"/>
    </contour>
    <contour>
      <point x="216" y="1346" type="move" name="top"/>
    </contour>
  </outline>
</glyph>
<glyph name="afii10077" format="1">
  <advance width="1128"/>
  <unicode hex="043B"/>
  <outline>
    <contour>
      <point x="804" y="0" type="line"/>
      <point x="804" y="870" type="line"/>
      <point x="493" y="870" type="line"/>
      <point x="434" y="454" type="line" smooth="yes"/>
      <point x="393" y="167"/>
      <point x="333" y="-14"/>
      <point x="62" y="-14" type="curve"/>
      <point x="48" y="118" type="line"/>
      <point x="192" y="118"/>
      <point x="227" y="187"/>
      <point x="268" y="480" type="curve" smooth="yes"/>
      <point x="341" y="999" type="line"/>
      <point x="979" y="999" type="line"/>
      <point x="979" y="0" type="line"/>
    </contour>
  </outline>
</glyph>
<glyph name="afii10085" format="1">
  <advance width="1013"/>
  <unicode hex="0443"/>
  <outline>
    <contour>
      <point x="92" y="-292" type="curve"/>
      <point x="86" y="-153" type="line"/>
      <point x="416" y="-180"/>
      <point x="466" y="44"/>
      <point x="491" y="111" type="curve"/>
      <point x="52" y="998" type="line"/>
      <point x="240" y="998" type="line"/>
      <point x="565" y="277" type="line"/>
      <point x="808" y="998" type="line"/>
      <point x="992" y="998" type="line"/>
      <point x="628" y="40" type="line" smooth="yes"/>
      <point x="566" y="-125"/>
      <point x="436" y="-310"/>
    </contour>
    <contour>
      <point x="507" y="999" type="line" smooth="yes"/>
    </contour>
    <contour>
      <point x="507" y="999" type="move" name="top"/>
    </contour>
  </outline>
</glyph>
<glyph name="afii10103" format="1">
  <advance width="437"/>
  <unicode hex="0456"/>
  <outline>
    <contour>
      <point x="219" y="999" type="line" smooth="yes"/>
    </contour>
    <component base="i"/>
    <contour>
      <point x="219" y="999" type="move" name="top"/>
    </contour>
  </outline>
</glyph>
<glyph name="quotedblbase" format="1">
  <advance width="717"/>
  <unicode hex="201E"/>
  <outline>
    <contour>
      <point x="379" y="-233" type="line"/>
      <point x="461" y="197" type="line"/>
      <point x="609" y="197" type="line"/>
      <point x="486" y="-233" type="line"/>
    </contour>
    <contour>
      <point x="92" y="-233" type="line"/>
      <point x="174" y="197" type="line"/>
      <point x="320" y="197" type="line"/>
      <point x="199" y="-233" type="line"/>
    </contour>
  </outline>
</glyph>
<glyph name="afii61352" format="1">
  <advance width="2487"/>
  <unicode hex="2116"/>
  <outline>
    <contour>
      <point x="2204" y="219" type="curve"/>
      <point x="2204" y="219"/>
      <point x="2199" y="509"/>
      <point x="2199" y="555" type="curve" smooth="yes"/>
      <point x="2199" y="1346" type="line"/>
      <point x="2351" y="1346" type="line"/>
      <point x="2351" y="0" type="line"/>
      <point x="2173" y="0" type="line"/>
      <point x="1914" y="377"/>
      <point x="1648" y="747"/>
      <point x="1392" y="1127" type="curve"/>
      <point x="1392" y="1127"/>
      <point x="1398" y="894"/>
      <point x="1398" y="786" type="curve" smooth="yes"/>
      <point x="1398" y="0" type="line"/>
      <point x="1245" y="0" type="line"/>
      <point x="1245" y="1346" type="line"/>
      <point x="1421" y="1346" type="line"/>
      <point x="1681" y="970"/>
      <point x="1946" y="598"/>
    </contour>
    <contour>
      <point x="576" y="886" type="curve" smooth="yes"/>
      <point x="782" y="886"/>
      <point x="867" y="719"/>
      <point x="867" y="497" type="curve" smooth="yes"/>
      <point x="867" y="279"/>
      <point x="783" y="112"/>
      <point x="576" y="112" type="curve" smooth="yes"/>
      <point x="369" y="112"/>
      <point x="285" y="279"/>
      <point x="285" y="497" type="curve" smooth="yes"/>
      <point x="285" y="719"/>
      <point x="370" y="886"/>
    </contour>
    <contour>
      <point x="576" y="-21" type="curve" smooth="yes"/>
      <point x="861" y="-21"/>
      <point x="1042" y="200"/>
      <point x="1042" y="499" type="curve" smooth="yes"/>
      <point x="1042" y="804"/>
      <point x="871" y="1019"/>
      <point x="576" y="1019" type="curve" smooth="yes"/>
      <point x="281" y="1019"/>
      <point x="110" y="804"/>
      <point x="110" y="499" type="curve" smooth="yes"/>
      <point x="110" y="200"/>
      <point x="291" y="-21"/>
    </contour>
  </outline>
</glyph>
<glyph name="afii10070.copy_1" format="1">
  <advance width="1020"/>
  <outline>
    <contour>
      <point x="510" y="999" type="line" smooth="yes"/>
    </contour>
    <component base="e"/>
    <contour>
      <point x="510" y="999" type="move" name="top"/>
    </contour>
  </outline>
</glyph>
